<?xml version="1.0" encoding="utf-8" standalone="no"?>
<!DOCTYPE svg PUBLIC "-//W3C//DTD SVG 1.1//EN"
  "http://www.w3.org/Graphics/SVG/1.1/DTD/svg11.dtd">
<!-- Created with matplotlib (https://matplotlib.org/) -->
<svg height="640.526719pt" version="1.1" viewBox="0 0 1174.997344 640.526719" width="1174.997344pt" xmlns="http://www.w3.org/2000/svg" xmlns:xlink="http://www.w3.org/1999/xlink">
 <defs>
  <style type="text/css">
*{stroke-linecap:butt;stroke-linejoin:round;}
  </style>
 </defs>
 <g id="figure_1">
  <g id="patch_1">
   <path d="M 0 640.526719 
L 1174.997344 640.526719 
L 1174.997344 0 
L 0 0 
z
"/>
  </g>
  <g id="axes_1">
   <g id="patch_2">
    <path d="M 246.197344 554.637187 
L 1138.997344 554.637187 
L 1138.997344 55.677187 
L 246.197344 55.677187 
z
"/>
   </g>
   <g id="matplotlib.axis_1">
    <g id="xtick_1">
     <g id="line2d_1">
      <defs>
       <path d="M 0 0 
L 0 9 
" id="m612469aabd" style="stroke:#ffffff;stroke-width:1.875;"/>
      </defs>
      <g>
       <use style="fill:#ffffff;stroke:#ffffff;stroke-width:1.875;" x="246.197344" xlink:href="#m612469aabd" y="554.637187"/>
      </g>
     </g>
     <g id="text_1">
      <!-- 0 -->
      <defs>
       <path d="M 31.78125 66.40625 
Q 24.171875 66.40625 20.328125 58.90625 
Q 16.5 51.421875 16.5 36.375 
Q 16.5 21.390625 20.328125 13.890625 
Q 24.171875 6.390625 31.78125 6.390625 
Q 39.453125 6.390625 43.28125 13.890625 
Q 47.125 21.390625 47.125 36.375 
Q 47.125 51.421875 43.28125 58.90625 
Q 39.453125 66.40625 31.78125 66.40625 
z
M 31.78125 74.21875 
Q 44.046875 74.21875 50.515625 64.515625 
Q 56.984375 54.828125 56.984375 36.375 
Q 56.984375 17.96875 50.515625 8.265625 
Q 44.046875 -1.421875 31.78125 -1.421875 
Q 19.53125 -1.421875 13.0625 8.265625 
Q 6.59375 17.96875 6.59375 36.375 
Q 6.59375 54.828125 13.0625 64.515625 
Q 19.53125 74.21875 31.78125 74.21875 
z
" id="DejaVuSans-48"/>
      </defs>
      <g style="fill:#ffffff;" transform="translate(240.948281 579.674609)scale(0.165 -0.165)">
       <use xlink:href="#DejaVuSans-48"/>
      </g>
     </g>
    </g>
    <g id="xtick_2">
     <g id="line2d_2">
      <g>
       <use style="fill:#ffffff;stroke:#ffffff;stroke-width:1.875;" x="352.88313" xlink:href="#m612469aabd" y="554.637187"/>
      </g>
     </g>
     <g id="text_2">
      <!-- 100 -->
      <defs>
       <path d="M 12.40625 8.296875 
L 28.515625 8.296875 
L 28.515625 63.921875 
L 10.984375 60.40625 
L 10.984375 69.390625 
L 28.421875 72.90625 
L 38.28125 72.90625 
L 38.28125 8.296875 
L 54.390625 8.296875 
L 54.390625 0 
L 12.40625 0 
z
" id="DejaVuSans-49"/>
      </defs>
      <g style="fill:#ffffff;" transform="translate(337.135942 579.674609)scale(0.165 -0.165)">
       <use xlink:href="#DejaVuSans-49"/>
       <use x="63.623047" xlink:href="#DejaVuSans-48"/>
       <use x="127.246094" xlink:href="#DejaVuSans-48"/>
      </g>
     </g>
    </g>
    <g id="xtick_3">
     <g id="line2d_3">
      <g>
       <use style="fill:#ffffff;stroke:#ffffff;stroke-width:1.875;" x="459.568916" xlink:href="#m612469aabd" y="554.637187"/>
      </g>
     </g>
     <g id="text_3">
      <!-- 200 -->
      <defs>
       <path d="M 19.1875 8.296875 
L 53.609375 8.296875 
L 53.609375 0 
L 7.328125 0 
L 7.328125 8.296875 
Q 12.9375 14.109375 22.625 23.890625 
Q 32.328125 33.6875 34.8125 36.53125 
Q 39.546875 41.84375 41.421875 45.53125 
Q 43.3125 49.21875 43.3125 52.78125 
Q 43.3125 58.59375 39.234375 62.25 
Q 35.15625 65.921875 28.609375 65.921875 
Q 23.96875 65.921875 18.8125 64.3125 
Q 13.671875 62.703125 7.8125 59.421875 
L 7.8125 69.390625 
Q 13.765625 71.78125 18.9375 73 
Q 24.125 74.21875 28.421875 74.21875 
Q 39.75 74.21875 46.484375 68.546875 
Q 53.21875 62.890625 53.21875 53.421875 
Q 53.21875 48.921875 51.53125 44.890625 
Q 49.859375 40.875 45.40625 35.40625 
Q 44.1875 33.984375 37.640625 27.21875 
Q 31.109375 20.453125 19.1875 8.296875 
z
" id="DejaVuSans-50"/>
      </defs>
      <g style="fill:#ffffff;" transform="translate(443.821728 579.674609)scale(0.165 -0.165)">
       <use xlink:href="#DejaVuSans-50"/>
       <use x="63.623047" xlink:href="#DejaVuSans-48"/>
       <use x="127.246094" xlink:href="#DejaVuSans-48"/>
      </g>
     </g>
    </g>
    <g id="xtick_4">
     <g id="line2d_4">
      <g>
       <use style="fill:#ffffff;stroke:#ffffff;stroke-width:1.875;" x="566.254702" xlink:href="#m612469aabd" y="554.637187"/>
      </g>
     </g>
     <g id="text_4">
      <!-- 300 -->
      <defs>
       <path d="M 40.578125 39.3125 
Q 47.65625 37.796875 51.625 33 
Q 55.609375 28.21875 55.609375 21.1875 
Q 55.609375 10.40625 48.1875 4.484375 
Q 40.765625 -1.421875 27.09375 -1.421875 
Q 22.515625 -1.421875 17.65625 -0.515625 
Q 12.796875 0.390625 7.625 2.203125 
L 7.625 11.71875 
Q 11.71875 9.328125 16.59375 8.109375 
Q 21.484375 6.890625 26.8125 6.890625 
Q 36.078125 6.890625 40.9375 10.546875 
Q 45.796875 14.203125 45.796875 21.1875 
Q 45.796875 27.640625 41.28125 31.265625 
Q 36.765625 34.90625 28.71875 34.90625 
L 20.21875 34.90625 
L 20.21875 43.015625 
L 29.109375 43.015625 
Q 36.375 43.015625 40.234375 45.921875 
Q 44.09375 48.828125 44.09375 54.296875 
Q 44.09375 59.90625 40.109375 62.90625 
Q 36.140625 65.921875 28.71875 65.921875 
Q 24.65625 65.921875 20.015625 65.03125 
Q 15.375 64.15625 9.8125 62.3125 
L 9.8125 71.09375 
Q 15.4375 72.65625 20.34375 73.4375 
Q 25.25 74.21875 29.59375 74.21875 
Q 40.828125 74.21875 47.359375 69.109375 
Q 53.90625 64.015625 53.90625 55.328125 
Q 53.90625 49.265625 50.4375 45.09375 
Q 46.96875 40.921875 40.578125 39.3125 
z
" id="DejaVuSans-51"/>
      </defs>
      <g style="fill:#ffffff;" transform="translate(550.507514 579.674609)scale(0.165 -0.165)">
       <use xlink:href="#DejaVuSans-51"/>
       <use x="63.623047" xlink:href="#DejaVuSans-48"/>
       <use x="127.246094" xlink:href="#DejaVuSans-48"/>
      </g>
     </g>
    </g>
    <g id="xtick_5">
     <g id="line2d_5">
      <g>
       <use style="fill:#ffffff;stroke:#ffffff;stroke-width:1.875;" x="672.940488" xlink:href="#m612469aabd" y="554.637187"/>
      </g>
     </g>
     <g id="text_5">
      <!-- 400 -->
      <defs>
       <path d="M 37.796875 64.3125 
L 12.890625 25.390625 
L 37.796875 25.390625 
z
M 35.203125 72.90625 
L 47.609375 72.90625 
L 47.609375 25.390625 
L 58.015625 25.390625 
L 58.015625 17.1875 
L 47.609375 17.1875 
L 47.609375 0 
L 37.796875 0 
L 37.796875 17.1875 
L 4.890625 17.1875 
L 4.890625 26.703125 
z
" id="DejaVuSans-52"/>
      </defs>
      <g style="fill:#ffffff;" transform="translate(657.1933 579.674609)scale(0.165 -0.165)">
       <use xlink:href="#DejaVuSans-52"/>
       <use x="63.623047" xlink:href="#DejaVuSans-48"/>
       <use x="127.246094" xlink:href="#DejaVuSans-48"/>
      </g>
     </g>
    </g>
    <g id="xtick_6">
     <g id="line2d_6">
      <g>
       <use style="fill:#ffffff;stroke:#ffffff;stroke-width:1.875;" x="779.626274" xlink:href="#m612469aabd" y="554.637187"/>
      </g>
     </g>
     <g id="text_6">
      <!-- 500 -->
      <defs>
       <path d="M 10.796875 72.90625 
L 49.515625 72.90625 
L 49.515625 64.59375 
L 19.828125 64.59375 
L 19.828125 46.734375 
Q 21.96875 47.46875 24.109375 47.828125 
Q 26.265625 48.1875 28.421875 48.1875 
Q 40.625 48.1875 47.75 41.5 
Q 54.890625 34.8125 54.890625 23.390625 
Q 54.890625 11.625 47.5625 5.09375 
Q 40.234375 -1.421875 26.90625 -1.421875 
Q 22.3125 -1.421875 17.546875 -0.640625 
Q 12.796875 0.140625 7.71875 1.703125 
L 7.71875 11.625 
Q 12.109375 9.234375 16.796875 8.0625 
Q 21.484375 6.890625 26.703125 6.890625 
Q 35.15625 6.890625 40.078125 11.328125 
Q 45.015625 15.765625 45.015625 23.390625 
Q 45.015625 31 40.078125 35.4375 
Q 35.15625 39.890625 26.703125 39.890625 
Q 22.75 39.890625 18.8125 39.015625 
Q 14.890625 38.140625 10.796875 36.28125 
z
" id="DejaVuSans-53"/>
      </defs>
      <g style="fill:#ffffff;" transform="translate(763.879086 579.674609)scale(0.165 -0.165)">
       <use xlink:href="#DejaVuSans-53"/>
       <use x="63.623047" xlink:href="#DejaVuSans-48"/>
       <use x="127.246094" xlink:href="#DejaVuSans-48"/>
      </g>
     </g>
    </g>
    <g id="xtick_7">
     <g id="line2d_7">
      <g>
       <use style="fill:#ffffff;stroke:#ffffff;stroke-width:1.875;" x="886.31206" xlink:href="#m612469aabd" y="554.637187"/>
      </g>
     </g>
     <g id="text_7">
      <!-- 600 -->
      <defs>
       <path d="M 33.015625 40.375 
Q 26.375 40.375 22.484375 35.828125 
Q 18.609375 31.296875 18.609375 23.390625 
Q 18.609375 15.53125 22.484375 10.953125 
Q 26.375 6.390625 33.015625 6.390625 
Q 39.65625 6.390625 43.53125 10.953125 
Q 47.40625 15.53125 47.40625 23.390625 
Q 47.40625 31.296875 43.53125 35.828125 
Q 39.65625 40.375 33.015625 40.375 
z
M 52.59375 71.296875 
L 52.59375 62.3125 
Q 48.875 64.0625 45.09375 64.984375 
Q 41.3125 65.921875 37.59375 65.921875 
Q 27.828125 65.921875 22.671875 59.328125 
Q 17.53125 52.734375 16.796875 39.40625 
Q 19.671875 43.65625 24.015625 45.921875 
Q 28.375 48.1875 33.59375 48.1875 
Q 44.578125 48.1875 50.953125 41.515625 
Q 57.328125 34.859375 57.328125 23.390625 
Q 57.328125 12.15625 50.6875 5.359375 
Q 44.046875 -1.421875 33.015625 -1.421875 
Q 20.359375 -1.421875 13.671875 8.265625 
Q 6.984375 17.96875 6.984375 36.375 
Q 6.984375 53.65625 15.1875 63.9375 
Q 23.390625 74.21875 37.203125 74.21875 
Q 40.921875 74.21875 44.703125 73.484375 
Q 48.484375 72.75 52.59375 71.296875 
z
" id="DejaVuSans-54"/>
      </defs>
      <g style="fill:#ffffff;" transform="translate(870.564872 579.674609)scale(0.165 -0.165)">
       <use xlink:href="#DejaVuSans-54"/>
       <use x="63.623047" xlink:href="#DejaVuSans-48"/>
       <use x="127.246094" xlink:href="#DejaVuSans-48"/>
      </g>
     </g>
    </g>
    <g id="xtick_8">
     <g id="line2d_8">
      <g>
       <use style="fill:#ffffff;stroke:#ffffff;stroke-width:1.875;" x="992.997846" xlink:href="#m612469aabd" y="554.637187"/>
      </g>
     </g>
     <g id="text_8">
      <!-- 700 -->
      <defs>
       <path d="M 8.203125 72.90625 
L 55.078125 72.90625 
L 55.078125 68.703125 
L 28.609375 0 
L 18.3125 0 
L 43.21875 64.59375 
L 8.203125 64.59375 
z
" id="DejaVuSans-55"/>
      </defs>
      <g style="fill:#ffffff;" transform="translate(977.250658 579.674609)scale(0.165 -0.165)">
       <use xlink:href="#DejaVuSans-55"/>
       <use x="63.623047" xlink:href="#DejaVuSans-48"/>
       <use x="127.246094" xlink:href="#DejaVuSans-48"/>
      </g>
     </g>
    </g>
    <g id="xtick_9">
     <g id="line2d_9">
      <g>
       <use style="fill:#ffffff;stroke:#ffffff;stroke-width:1.875;" x="1099.683632" xlink:href="#m612469aabd" y="554.637187"/>
      </g>
     </g>
     <g id="text_9">
      <!-- 800 -->
      <defs>
       <path d="M 31.78125 34.625 
Q 24.75 34.625 20.71875 30.859375 
Q 16.703125 27.09375 16.703125 20.515625 
Q 16.703125 13.921875 20.71875 10.15625 
Q 24.75 6.390625 31.78125 6.390625 
Q 38.8125 6.390625 42.859375 10.171875 
Q 46.921875 13.96875 46.921875 20.515625 
Q 46.921875 27.09375 42.890625 30.859375 
Q 38.875 34.625 31.78125 34.625 
z
M 21.921875 38.8125 
Q 15.578125 40.375 12.03125 44.71875 
Q 8.5 49.078125 8.5 55.328125 
Q 8.5 64.0625 14.71875 69.140625 
Q 20.953125 74.21875 31.78125 74.21875 
Q 42.671875 74.21875 48.875 69.140625 
Q 55.078125 64.0625 55.078125 55.328125 
Q 55.078125 49.078125 51.53125 44.71875 
Q 48 40.375 41.703125 38.8125 
Q 48.828125 37.15625 52.796875 32.3125 
Q 56.78125 27.484375 56.78125 20.515625 
Q 56.78125 9.90625 50.3125 4.234375 
Q 43.84375 -1.421875 31.78125 -1.421875 
Q 19.734375 -1.421875 13.25 4.234375 
Q 6.78125 9.90625 6.78125 20.515625 
Q 6.78125 27.484375 10.78125 32.3125 
Q 14.796875 37.15625 21.921875 38.8125 
z
M 18.3125 54.390625 
Q 18.3125 48.734375 21.84375 45.5625 
Q 25.390625 42.390625 31.78125 42.390625 
Q 38.140625 42.390625 41.71875 45.5625 
Q 45.3125 48.734375 45.3125 54.390625 
Q 45.3125 60.0625 41.71875 63.234375 
Q 38.140625 66.40625 31.78125 66.40625 
Q 25.390625 66.40625 21.84375 63.234375 
Q 18.3125 60.0625 18.3125 54.390625 
z
" id="DejaVuSans-56"/>
      </defs>
      <g style="fill:#ffffff;" transform="translate(1083.936444 579.674609)scale(0.165 -0.165)">
       <use xlink:href="#DejaVuSans-56"/>
       <use x="63.623047" xlink:href="#DejaVuSans-48"/>
       <use x="127.246094" xlink:href="#DejaVuSans-48"/>
      </g>
     </g>
    </g>
    <g id="text_10">
     <!-- #-of Involvements -->
     <defs>
      <path d="M 51.125 44 
L 36.921875 44 
L 32.8125 27.6875 
L 47.125 27.6875 
z
M 43.796875 71.78125 
L 38.71875 51.515625 
L 52.984375 51.515625 
L 58.109375 71.78125 
L 65.921875 71.78125 
L 60.890625 51.515625 
L 76.125 51.515625 
L 76.125 44 
L 58.984375 44 
L 54.984375 27.6875 
L 70.515625 27.6875 
L 70.515625 20.21875 
L 53.078125 20.21875 
L 48 0 
L 40.1875 0 
L 45.21875 20.21875 
L 30.90625 20.21875 
L 25.875 0 
L 18.015625 0 
L 23.09375 20.21875 
L 7.71875 20.21875 
L 7.71875 27.6875 
L 24.90625 27.6875 
L 29 44 
L 13.28125 44 
L 13.28125 51.515625 
L 30.90625 51.515625 
L 35.890625 71.78125 
z
" id="DejaVuSans-35"/>
      <path d="M 4.890625 31.390625 
L 31.203125 31.390625 
L 31.203125 23.390625 
L 4.890625 23.390625 
z
" id="DejaVuSans-45"/>
      <path d="M 30.609375 48.390625 
Q 23.390625 48.390625 19.1875 42.75 
Q 14.984375 37.109375 14.984375 27.296875 
Q 14.984375 17.484375 19.15625 11.84375 
Q 23.34375 6.203125 30.609375 6.203125 
Q 37.796875 6.203125 41.984375 11.859375 
Q 46.1875 17.53125 46.1875 27.296875 
Q 46.1875 37.015625 41.984375 42.703125 
Q 37.796875 48.390625 30.609375 48.390625 
z
M 30.609375 56 
Q 42.328125 56 49.015625 48.375 
Q 55.71875 40.765625 55.71875 27.296875 
Q 55.71875 13.875 49.015625 6.21875 
Q 42.328125 -1.421875 30.609375 -1.421875 
Q 18.84375 -1.421875 12.171875 6.21875 
Q 5.515625 13.875 5.515625 27.296875 
Q 5.515625 40.765625 12.171875 48.375 
Q 18.84375 56 30.609375 56 
z
" id="DejaVuSans-111"/>
      <path d="M 37.109375 75.984375 
L 37.109375 68.5 
L 28.515625 68.5 
Q 23.6875 68.5 21.796875 66.546875 
Q 19.921875 64.59375 19.921875 59.515625 
L 19.921875 54.6875 
L 34.71875 54.6875 
L 34.71875 47.703125 
L 19.921875 47.703125 
L 19.921875 0 
L 10.890625 0 
L 10.890625 47.703125 
L 2.296875 47.703125 
L 2.296875 54.6875 
L 10.890625 54.6875 
L 10.890625 58.5 
Q 10.890625 67.625 15.140625 71.796875 
Q 19.390625 75.984375 28.609375 75.984375 
z
" id="DejaVuSans-102"/>
      <path id="DejaVuSans-32"/>
      <path d="M 9.8125 72.90625 
L 19.671875 72.90625 
L 19.671875 0 
L 9.8125 0 
z
" id="DejaVuSans-73"/>
      <path d="M 54.890625 33.015625 
L 54.890625 0 
L 45.90625 0 
L 45.90625 32.71875 
Q 45.90625 40.484375 42.875 44.328125 
Q 39.84375 48.1875 33.796875 48.1875 
Q 26.515625 48.1875 22.3125 43.546875 
Q 18.109375 38.921875 18.109375 30.90625 
L 18.109375 0 
L 9.078125 0 
L 9.078125 54.6875 
L 18.109375 54.6875 
L 18.109375 46.1875 
Q 21.34375 51.125 25.703125 53.5625 
Q 30.078125 56 35.796875 56 
Q 45.21875 56 50.046875 50.171875 
Q 54.890625 44.34375 54.890625 33.015625 
z
" id="DejaVuSans-110"/>
      <path d="M 2.984375 54.6875 
L 12.5 54.6875 
L 29.59375 8.796875 
L 46.6875 54.6875 
L 56.203125 54.6875 
L 35.6875 0 
L 23.484375 0 
z
" id="DejaVuSans-118"/>
      <path d="M 9.421875 75.984375 
L 18.40625 75.984375 
L 18.40625 0 
L 9.421875 0 
z
" id="DejaVuSans-108"/>
      <path d="M 56.203125 29.59375 
L 56.203125 25.203125 
L 14.890625 25.203125 
Q 15.484375 15.921875 20.484375 11.0625 
Q 25.484375 6.203125 34.421875 6.203125 
Q 39.59375 6.203125 44.453125 7.46875 
Q 49.3125 8.734375 54.109375 11.28125 
L 54.109375 2.78125 
Q 49.265625 0.734375 44.1875 -0.34375 
Q 39.109375 -1.421875 33.890625 -1.421875 
Q 20.796875 -1.421875 13.15625 6.1875 
Q 5.515625 13.8125 5.515625 26.8125 
Q 5.515625 40.234375 12.765625 48.109375 
Q 20.015625 56 32.328125 56 
Q 43.359375 56 49.78125 48.890625 
Q 56.203125 41.796875 56.203125 29.59375 
z
M 47.21875 32.234375 
Q 47.125 39.59375 43.09375 43.984375 
Q 39.0625 48.390625 32.421875 48.390625 
Q 24.90625 48.390625 20.390625 44.140625 
Q 15.875 39.890625 15.1875 32.171875 
z
" id="DejaVuSans-101"/>
      <path d="M 52 44.1875 
Q 55.375 50.25 60.0625 53.125 
Q 64.75 56 71.09375 56 
Q 79.640625 56 84.28125 50.015625 
Q 88.921875 44.046875 88.921875 33.015625 
L 88.921875 0 
L 79.890625 0 
L 79.890625 32.71875 
Q 79.890625 40.578125 77.09375 44.375 
Q 74.3125 48.1875 68.609375 48.1875 
Q 61.625 48.1875 57.5625 43.546875 
Q 53.515625 38.921875 53.515625 30.90625 
L 53.515625 0 
L 44.484375 0 
L 44.484375 32.71875 
Q 44.484375 40.625 41.703125 44.40625 
Q 38.921875 48.1875 33.109375 48.1875 
Q 26.21875 48.1875 22.15625 43.53125 
Q 18.109375 38.875 18.109375 30.90625 
L 18.109375 0 
L 9.078125 0 
L 9.078125 54.6875 
L 18.109375 54.6875 
L 18.109375 46.1875 
Q 21.1875 51.21875 25.484375 53.609375 
Q 29.78125 56 35.6875 56 
Q 41.65625 56 45.828125 52.96875 
Q 50 49.953125 52 44.1875 
z
" id="DejaVuSans-109"/>
      <path d="M 18.3125 70.21875 
L 18.3125 54.6875 
L 36.8125 54.6875 
L 36.8125 47.703125 
L 18.3125 47.703125 
L 18.3125 18.015625 
Q 18.3125 11.328125 20.140625 9.421875 
Q 21.96875 7.515625 27.59375 7.515625 
L 36.8125 7.515625 
L 36.8125 0 
L 27.59375 0 
Q 17.1875 0 13.234375 3.875 
Q 9.28125 7.765625 9.28125 18.015625 
L 9.28125 47.703125 
L 2.6875 47.703125 
L 2.6875 54.6875 
L 9.28125 54.6875 
L 9.28125 70.21875 
z
" id="DejaVuSans-116"/>
      <path d="M 44.28125 53.078125 
L 44.28125 44.578125 
Q 40.484375 46.53125 36.375 47.5 
Q 32.28125 48.484375 27.875 48.484375 
Q 21.1875 48.484375 17.84375 46.4375 
Q 14.5 44.390625 14.5 40.28125 
Q 14.5 37.15625 16.890625 35.375 
Q 19.28125 33.59375 26.515625 31.984375 
L 29.59375 31.296875 
Q 39.15625 29.25 43.1875 25.515625 
Q 47.21875 21.78125 47.21875 15.09375 
Q 47.21875 7.46875 41.1875 3.015625 
Q 35.15625 -1.421875 24.609375 -1.421875 
Q 20.21875 -1.421875 15.453125 -0.5625 
Q 10.6875 0.296875 5.421875 2 
L 5.421875 11.28125 
Q 10.40625 8.6875 15.234375 7.390625 
Q 20.0625 6.109375 24.8125 6.109375 
Q 31.15625 6.109375 34.5625 8.28125 
Q 37.984375 10.453125 37.984375 14.40625 
Q 37.984375 18.0625 35.515625 20.015625 
Q 33.0625 21.96875 24.703125 23.78125 
L 21.578125 24.515625 
Q 13.234375 26.265625 9.515625 29.90625 
Q 5.8125 33.546875 5.8125 39.890625 
Q 5.8125 47.609375 11.28125 51.796875 
Q 16.75 56 26.8125 56 
Q 31.78125 56 36.171875 55.265625 
Q 40.578125 54.546875 44.28125 53.078125 
z
" id="DejaVuSans-115"/>
     </defs>
     <g style="fill:#ffffff;" transform="translate(609.322031 600.783281)scale(0.18 -0.18)">
      <use xlink:href="#DejaVuSans-35"/>
      <use x="83.789062" xlink:href="#DejaVuSans-45"/>
      <use x="121.748047" xlink:href="#DejaVuSans-111"/>
      <use x="182.929688" xlink:href="#DejaVuSans-102"/>
      <use x="218.134766" xlink:href="#DejaVuSans-32"/>
      <use x="249.921875" xlink:href="#DejaVuSans-73"/>
      <use x="279.414062" xlink:href="#DejaVuSans-110"/>
      <use x="342.792969" xlink:href="#DejaVuSans-118"/>
      <use x="401.972656" xlink:href="#DejaVuSans-111"/>
      <use x="463.154297" xlink:href="#DejaVuSans-108"/>
      <use x="490.9375" xlink:href="#DejaVuSans-118"/>
      <use x="550.117188" xlink:href="#DejaVuSans-101"/>
      <use x="611.640625" xlink:href="#DejaVuSans-109"/>
      <use x="709.052734" xlink:href="#DejaVuSans-101"/>
      <use x="770.576172" xlink:href="#DejaVuSans-110"/>
      <use x="833.955078" xlink:href="#DejaVuSans-116"/>
      <use x="873.164062" xlink:href="#DejaVuSans-115"/>
     </g>
    </g>
   </g>
   <g id="matplotlib.axis_2">
    <g id="ytick_1">
     <g id="line2d_10">
      <defs>
       <path d="M 0 0 
L -9 0 
" id="mb43ee3dafc" style="stroke:#ffffff;stroke-width:1.875;"/>
      </defs>
      <g>
       <use style="fill:#ffffff;stroke:#ffffff;stroke-width:1.875;" x="246.197344" xlink:href="#mb43ee3dafc" y="80.625187"/>
      </g>
     </g>
     <g id="text_11">
      <!-- self -->
      <g style="fill:#ffffff;" transform="translate(204.556797 86.893898)scale(0.165 -0.165)">
       <use xlink:href="#DejaVuSans-115"/>
       <use x="52.099609" xlink:href="#DejaVuSans-101"/>
       <use x="113.623047" xlink:href="#DejaVuSans-108"/>
       <use x="141.40625" xlink:href="#DejaVuSans-102"/>
      </g>
     </g>
    </g>
    <g id="ytick_2">
     <g id="line2d_11">
      <g>
       <use style="fill:#ffffff;stroke:#ffffff;stroke-width:1.875;" x="246.197344" xlink:href="#mb43ee3dafc" y="130.521187"/>
      </g>
     </g>
     <g id="text_12">
      <!-- Disha Kayal -->
      <defs>
       <path d="M 19.671875 64.796875 
L 19.671875 8.109375 
L 31.59375 8.109375 
Q 46.6875 8.109375 53.6875 14.9375 
Q 60.6875 21.78125 60.6875 36.53125 
Q 60.6875 51.171875 53.6875 57.984375 
Q 46.6875 64.796875 31.59375 64.796875 
z
M 9.8125 72.90625 
L 30.078125 72.90625 
Q 51.265625 72.90625 61.171875 64.09375 
Q 71.09375 55.28125 71.09375 36.53125 
Q 71.09375 17.671875 61.125 8.828125 
Q 51.171875 0 30.078125 0 
L 9.8125 0 
z
" id="DejaVuSans-68"/>
       <path d="M 9.421875 54.6875 
L 18.40625 54.6875 
L 18.40625 0 
L 9.421875 0 
z
M 9.421875 75.984375 
L 18.40625 75.984375 
L 18.40625 64.59375 
L 9.421875 64.59375 
z
" id="DejaVuSans-105"/>
       <path d="M 54.890625 33.015625 
L 54.890625 0 
L 45.90625 0 
L 45.90625 32.71875 
Q 45.90625 40.484375 42.875 44.328125 
Q 39.84375 48.1875 33.796875 48.1875 
Q 26.515625 48.1875 22.3125 43.546875 
Q 18.109375 38.921875 18.109375 30.90625 
L 18.109375 0 
L 9.078125 0 
L 9.078125 75.984375 
L 18.109375 75.984375 
L 18.109375 46.1875 
Q 21.34375 51.125 25.703125 53.5625 
Q 30.078125 56 35.796875 56 
Q 45.21875 56 50.046875 50.171875 
Q 54.890625 44.34375 54.890625 33.015625 
z
" id="DejaVuSans-104"/>
       <path d="M 34.28125 27.484375 
Q 23.390625 27.484375 19.1875 25 
Q 14.984375 22.515625 14.984375 16.5 
Q 14.984375 11.71875 18.140625 8.90625 
Q 21.296875 6.109375 26.703125 6.109375 
Q 34.1875 6.109375 38.703125 11.40625 
Q 43.21875 16.703125 43.21875 25.484375 
L 43.21875 27.484375 
z
M 52.203125 31.203125 
L 52.203125 0 
L 43.21875 0 
L 43.21875 8.296875 
Q 40.140625 3.328125 35.546875 0.953125 
Q 30.953125 -1.421875 24.3125 -1.421875 
Q 15.921875 -1.421875 10.953125 3.296875 
Q 6 8.015625 6 15.921875 
Q 6 25.140625 12.171875 29.828125 
Q 18.359375 34.515625 30.609375 34.515625 
L 43.21875 34.515625 
L 43.21875 35.40625 
Q 43.21875 41.609375 39.140625 45 
Q 35.0625 48.390625 27.6875 48.390625 
Q 23 48.390625 18.546875 47.265625 
Q 14.109375 46.140625 10.015625 43.890625 
L 10.015625 52.203125 
Q 14.9375 54.109375 19.578125 55.046875 
Q 24.21875 56 28.609375 56 
Q 40.484375 56 46.34375 49.84375 
Q 52.203125 43.703125 52.203125 31.203125 
z
" id="DejaVuSans-97"/>
       <path d="M 9.8125 72.90625 
L 19.671875 72.90625 
L 19.671875 42.09375 
L 52.390625 72.90625 
L 65.09375 72.90625 
L 28.90625 38.921875 
L 67.671875 0 
L 54.6875 0 
L 19.671875 35.109375 
L 19.671875 0 
L 9.8125 0 
z
" id="DejaVuSans-75"/>
       <path d="M 32.171875 -5.078125 
Q 28.375 -14.84375 24.75 -17.8125 
Q 21.140625 -20.796875 15.09375 -20.796875 
L 7.90625 -20.796875 
L 7.90625 -13.28125 
L 13.1875 -13.28125 
Q 16.890625 -13.28125 18.9375 -11.515625 
Q 21 -9.765625 23.484375 -3.21875 
L 25.09375 0.875 
L 2.984375 54.6875 
L 12.5 54.6875 
L 29.59375 11.921875 
L 46.6875 54.6875 
L 56.203125 54.6875 
z
" id="DejaVuSans-121"/>
      </defs>
      <g style="fill:#ffffff;" transform="translate(136.896484 136.789898)scale(0.165 -0.165)">
       <use xlink:href="#DejaVuSans-68"/>
       <use x="77.001953" xlink:href="#DejaVuSans-105"/>
       <use x="104.785156" xlink:href="#DejaVuSans-115"/>
       <use x="156.884766" xlink:href="#DejaVuSans-104"/>
       <use x="220.263672" xlink:href="#DejaVuSans-97"/>
       <use x="281.542969" xlink:href="#DejaVuSans-32"/>
       <use x="313.330078" xlink:href="#DejaVuSans-75"/>
       <use x="377.15625" xlink:href="#DejaVuSans-97"/>
       <use x="438.435547" xlink:href="#DejaVuSans-121"/>
       <use x="497.615234" xlink:href="#DejaVuSans-97"/>
       <use x="558.894531" xlink:href="#DejaVuSans-108"/>
      </g>
     </g>
    </g>
    <g id="ytick_3">
     <g id="line2d_12">
      <g>
       <use style="fill:#ffffff;stroke:#ffffff;stroke-width:1.875;" x="246.197344" xlink:href="#mb43ee3dafc" y="180.417187"/>
      </g>
     </g>
     <g id="text_13">
      <!-- Nibedita Neha Sarkar -->
      <defs>
       <path d="M 9.8125 72.90625 
L 23.09375 72.90625 
L 55.421875 11.921875 
L 55.421875 72.90625 
L 64.984375 72.90625 
L 64.984375 0 
L 51.703125 0 
L 19.390625 60.984375 
L 19.390625 0 
L 9.8125 0 
z
" id="DejaVuSans-78"/>
       <path d="M 48.6875 27.296875 
Q 48.6875 37.203125 44.609375 42.84375 
Q 40.53125 48.484375 33.40625 48.484375 
Q 26.265625 48.484375 22.1875 42.84375 
Q 18.109375 37.203125 18.109375 27.296875 
Q 18.109375 17.390625 22.1875 11.75 
Q 26.265625 6.109375 33.40625 6.109375 
Q 40.53125 6.109375 44.609375 11.75 
Q 48.6875 17.390625 48.6875 27.296875 
z
M 18.109375 46.390625 
Q 20.953125 51.265625 25.265625 53.625 
Q 29.59375 56 35.59375 56 
Q 45.5625 56 51.78125 48.09375 
Q 58.015625 40.1875 58.015625 27.296875 
Q 58.015625 14.40625 51.78125 6.484375 
Q 45.5625 -1.421875 35.59375 -1.421875 
Q 29.59375 -1.421875 25.265625 0.953125 
Q 20.953125 3.328125 18.109375 8.203125 
L 18.109375 0 
L 9.078125 0 
L 9.078125 75.984375 
L 18.109375 75.984375 
z
" id="DejaVuSans-98"/>
       <path d="M 45.40625 46.390625 
L 45.40625 75.984375 
L 54.390625 75.984375 
L 54.390625 0 
L 45.40625 0 
L 45.40625 8.203125 
Q 42.578125 3.328125 38.25 0.953125 
Q 33.9375 -1.421875 27.875 -1.421875 
Q 17.96875 -1.421875 11.734375 6.484375 
Q 5.515625 14.40625 5.515625 27.296875 
Q 5.515625 40.1875 11.734375 48.09375 
Q 17.96875 56 27.875 56 
Q 33.9375 56 38.25 53.625 
Q 42.578125 51.265625 45.40625 46.390625 
z
M 14.796875 27.296875 
Q 14.796875 17.390625 18.875 11.75 
Q 22.953125 6.109375 30.078125 6.109375 
Q 37.203125 6.109375 41.296875 11.75 
Q 45.40625 17.390625 45.40625 27.296875 
Q 45.40625 37.203125 41.296875 42.84375 
Q 37.203125 48.484375 30.078125 48.484375 
Q 22.953125 48.484375 18.875 42.84375 
Q 14.796875 37.203125 14.796875 27.296875 
z
" id="DejaVuSans-100"/>
       <path d="M 53.515625 70.515625 
L 53.515625 60.890625 
Q 47.90625 63.578125 42.921875 64.890625 
Q 37.9375 66.21875 33.296875 66.21875 
Q 25.25 66.21875 20.875 63.09375 
Q 16.5 59.96875 16.5 54.203125 
Q 16.5 49.359375 19.40625 46.890625 
Q 22.3125 44.4375 30.421875 42.921875 
L 36.375 41.703125 
Q 47.40625 39.59375 52.65625 34.296875 
Q 57.90625 29 57.90625 20.125 
Q 57.90625 9.515625 50.796875 4.046875 
Q 43.703125 -1.421875 29.984375 -1.421875 
Q 24.8125 -1.421875 18.96875 -0.25 
Q 13.140625 0.921875 6.890625 3.21875 
L 6.890625 13.375 
Q 12.890625 10.015625 18.65625 8.296875 
Q 24.421875 6.59375 29.984375 6.59375 
Q 38.421875 6.59375 43.015625 9.90625 
Q 47.609375 13.234375 47.609375 19.390625 
Q 47.609375 24.75 44.3125 27.78125 
Q 41.015625 30.8125 33.5 32.328125 
L 27.484375 33.5 
Q 16.453125 35.6875 11.515625 40.375 
Q 6.59375 45.0625 6.59375 53.421875 
Q 6.59375 63.09375 13.40625 68.65625 
Q 20.21875 74.21875 32.171875 74.21875 
Q 37.3125 74.21875 42.625 73.28125 
Q 47.953125 72.359375 53.515625 70.515625 
z
" id="DejaVuSans-83"/>
       <path d="M 41.109375 46.296875 
Q 39.59375 47.171875 37.8125 47.578125 
Q 36.03125 48 33.890625 48 
Q 26.265625 48 22.1875 43.046875 
Q 18.109375 38.09375 18.109375 28.8125 
L 18.109375 0 
L 9.078125 0 
L 9.078125 54.6875 
L 18.109375 54.6875 
L 18.109375 46.1875 
Q 20.953125 51.171875 25.484375 53.578125 
Q 30.03125 56 36.53125 56 
Q 37.453125 56 38.578125 55.875 
Q 39.703125 55.765625 41.0625 55.515625 
z
" id="DejaVuSans-114"/>
       <path d="M 9.078125 75.984375 
L 18.109375 75.984375 
L 18.109375 31.109375 
L 44.921875 54.6875 
L 56.390625 54.6875 
L 27.390625 29.109375 
L 57.625 0 
L 45.90625 0 
L 18.109375 26.703125 
L 18.109375 0 
L 9.078125 0 
z
" id="DejaVuSans-107"/>
      </defs>
      <g style="fill:#ffffff;" transform="translate(57.420625 186.685898)scale(0.165 -0.165)">
       <use xlink:href="#DejaVuSans-78"/>
       <use x="74.804688" xlink:href="#DejaVuSans-105"/>
       <use x="102.587891" xlink:href="#DejaVuSans-98"/>
       <use x="166.064453" xlink:href="#DejaVuSans-101"/>
       <use x="227.587891" xlink:href="#DejaVuSans-100"/>
       <use x="291.064453" xlink:href="#DejaVuSans-105"/>
       <use x="318.847656" xlink:href="#DejaVuSans-116"/>
       <use x="358.056641" xlink:href="#DejaVuSans-97"/>
       <use x="419.335938" xlink:href="#DejaVuSans-32"/>
       <use x="451.123047" xlink:href="#DejaVuSans-78"/>
       <use x="525.927734" xlink:href="#DejaVuSans-101"/>
       <use x="587.451172" xlink:href="#DejaVuSans-104"/>
       <use x="650.830078" xlink:href="#DejaVuSans-97"/>
       <use x="712.109375" xlink:href="#DejaVuSans-32"/>
       <use x="743.896484" xlink:href="#DejaVuSans-83"/>
       <use x="807.373047" xlink:href="#DejaVuSans-97"/>
       <use x="868.652344" xlink:href="#DejaVuSans-114"/>
       <use x="909.765625" xlink:href="#DejaVuSans-107"/>
       <use x="965.925781" xlink:href="#DejaVuSans-97"/>
       <use x="1027.205078" xlink:href="#DejaVuSans-114"/>
      </g>
     </g>
    </g>
    <g id="ytick_4">
     <g id="line2d_13">
      <g>
       <use style="fill:#ffffff;stroke:#ffffff;stroke-width:1.875;" x="246.197344" xlink:href="#mb43ee3dafc" y="230.313187"/>
      </g>
     </g>
     <g id="text_14">
      <!-- Sudip Gorai -->
      <defs>
       <path d="M 8.5 21.578125 
L 8.5 54.6875 
L 17.484375 54.6875 
L 17.484375 21.921875 
Q 17.484375 14.15625 20.5 10.265625 
Q 23.53125 6.390625 29.59375 6.390625 
Q 36.859375 6.390625 41.078125 11.03125 
Q 45.3125 15.671875 45.3125 23.6875 
L 45.3125 54.6875 
L 54.296875 54.6875 
L 54.296875 0 
L 45.3125 0 
L 45.3125 8.40625 
Q 42.046875 3.421875 37.71875 1 
Q 33.40625 -1.421875 27.6875 -1.421875 
Q 18.265625 -1.421875 13.375 4.4375 
Q 8.5 10.296875 8.5 21.578125 
z
M 31.109375 56 
z
" id="DejaVuSans-117"/>
       <path d="M 18.109375 8.203125 
L 18.109375 -20.796875 
L 9.078125 -20.796875 
L 9.078125 54.6875 
L 18.109375 54.6875 
L 18.109375 46.390625 
Q 20.953125 51.265625 25.265625 53.625 
Q 29.59375 56 35.59375 56 
Q 45.5625 56 51.78125 48.09375 
Q 58.015625 40.1875 58.015625 27.296875 
Q 58.015625 14.40625 51.78125 6.484375 
Q 45.5625 -1.421875 35.59375 -1.421875 
Q 29.59375 -1.421875 25.265625 0.953125 
Q 20.953125 3.328125 18.109375 8.203125 
z
M 48.6875 27.296875 
Q 48.6875 37.203125 44.609375 42.84375 
Q 40.53125 48.484375 33.40625 48.484375 
Q 26.265625 48.484375 22.1875 42.84375 
Q 18.109375 37.203125 18.109375 27.296875 
Q 18.109375 17.390625 22.1875 11.75 
Q 26.265625 6.109375 33.40625 6.109375 
Q 40.53125 6.109375 44.609375 11.75 
Q 48.6875 17.390625 48.6875 27.296875 
z
" id="DejaVuSans-112"/>
       <path d="M 59.515625 10.40625 
L 59.515625 29.984375 
L 43.40625 29.984375 
L 43.40625 38.09375 
L 69.28125 38.09375 
L 69.28125 6.78125 
Q 63.578125 2.734375 56.6875 0.65625 
Q 49.8125 -1.421875 42 -1.421875 
Q 24.90625 -1.421875 15.25 8.5625 
Q 5.609375 18.5625 5.609375 36.375 
Q 5.609375 54.25 15.25 64.234375 
Q 24.90625 74.21875 42 74.21875 
Q 49.125 74.21875 55.546875 72.453125 
Q 61.96875 70.703125 67.390625 67.28125 
L 67.390625 56.78125 
Q 61.921875 61.421875 55.765625 63.765625 
Q 49.609375 66.109375 42.828125 66.109375 
Q 29.4375 66.109375 22.71875 58.640625 
Q 16.015625 51.171875 16.015625 36.375 
Q 16.015625 21.625 22.71875 14.15625 
Q 29.4375 6.6875 42.828125 6.6875 
Q 48.046875 6.6875 52.140625 7.59375 
Q 56.25 8.5 59.515625 10.40625 
z
" id="DejaVuSans-71"/>
      </defs>
      <g style="fill:#ffffff;" transform="translate(137.628672 236.581898)scale(0.165 -0.165)">
       <use xlink:href="#DejaVuSans-83"/>
       <use x="63.476562" xlink:href="#DejaVuSans-117"/>
       <use x="126.855469" xlink:href="#DejaVuSans-100"/>
       <use x="190.332031" xlink:href="#DejaVuSans-105"/>
       <use x="218.115234" xlink:href="#DejaVuSans-112"/>
       <use x="281.591797" xlink:href="#DejaVuSans-32"/>
       <use x="313.378906" xlink:href="#DejaVuSans-71"/>
       <use x="390.869141" xlink:href="#DejaVuSans-111"/>
       <use x="452.050781" xlink:href="#DejaVuSans-114"/>
       <use x="493.164062" xlink:href="#DejaVuSans-97"/>
       <use x="554.443359" xlink:href="#DejaVuSans-105"/>
      </g>
     </g>
    </g>
    <g id="ytick_5">
     <g id="line2d_14">
      <g>
       <use style="fill:#ffffff;stroke:#ffffff;stroke-width:1.875;" x="246.197344" xlink:href="#mb43ee3dafc" y="280.209187"/>
      </g>
     </g>
     <g id="text_15">
      <!-- Snehashis Sarkar -->
      <g style="fill:#ffffff;" transform="translate(91.039375 286.477898)scale(0.165 -0.165)">
       <use xlink:href="#DejaVuSans-83"/>
       <use x="63.476562" xlink:href="#DejaVuSans-110"/>
       <use x="126.855469" xlink:href="#DejaVuSans-101"/>
       <use x="188.378906" xlink:href="#DejaVuSans-104"/>
       <use x="251.757812" xlink:href="#DejaVuSans-97"/>
       <use x="313.037109" xlink:href="#DejaVuSans-115"/>
       <use x="365.136719" xlink:href="#DejaVuSans-104"/>
       <use x="428.515625" xlink:href="#DejaVuSans-105"/>
       <use x="456.298828" xlink:href="#DejaVuSans-115"/>
       <use x="508.398438" xlink:href="#DejaVuSans-32"/>
       <use x="540.185547" xlink:href="#DejaVuSans-83"/>
       <use x="603.662109" xlink:href="#DejaVuSans-97"/>
       <use x="664.941406" xlink:href="#DejaVuSans-114"/>
       <use x="706.054688" xlink:href="#DejaVuSans-107"/>
       <use x="762.214844" xlink:href="#DejaVuSans-97"/>
       <use x="823.494141" xlink:href="#DejaVuSans-114"/>
      </g>
     </g>
    </g>
    <g id="ytick_6">
     <g id="line2d_15">
      <g>
       <use style="fill:#ffffff;stroke:#ffffff;stroke-width:1.875;" x="246.197344" xlink:href="#mb43ee3dafc" y="330.105187"/>
      </g>
     </g>
     <g id="text_16">
      <!-- Shireen Chowdhury -->
      <defs>
       <path d="M 64.40625 67.28125 
L 64.40625 56.890625 
Q 59.421875 61.53125 53.78125 63.8125 
Q 48.140625 66.109375 41.796875 66.109375 
Q 29.296875 66.109375 22.65625 58.46875 
Q 16.015625 50.828125 16.015625 36.375 
Q 16.015625 21.96875 22.65625 14.328125 
Q 29.296875 6.6875 41.796875 6.6875 
Q 48.140625 6.6875 53.78125 8.984375 
Q 59.421875 11.28125 64.40625 15.921875 
L 64.40625 5.609375 
Q 59.234375 2.09375 53.4375 0.328125 
Q 47.65625 -1.421875 41.21875 -1.421875 
Q 24.65625 -1.421875 15.125 8.703125 
Q 5.609375 18.84375 5.609375 36.375 
Q 5.609375 53.953125 15.125 64.078125 
Q 24.65625 74.21875 41.21875 74.21875 
Q 47.75 74.21875 53.53125 72.484375 
Q 59.328125 70.75 64.40625 67.28125 
z
" id="DejaVuSans-67"/>
       <path d="M 4.203125 54.6875 
L 13.1875 54.6875 
L 24.421875 12.015625 
L 35.59375 54.6875 
L 46.1875 54.6875 
L 57.421875 12.015625 
L 68.609375 54.6875 
L 77.59375 54.6875 
L 63.28125 0 
L 52.6875 0 
L 40.921875 44.828125 
L 29.109375 0 
L 18.5 0 
z
" id="DejaVuSans-119"/>
      </defs>
      <g style="fill:#ffffff;" transform="translate(72.257734 336.373898)scale(0.165 -0.165)">
       <use xlink:href="#DejaVuSans-83"/>
       <use x="63.476562" xlink:href="#DejaVuSans-104"/>
       <use x="126.855469" xlink:href="#DejaVuSans-105"/>
       <use x="154.638672" xlink:href="#DejaVuSans-114"/>
       <use x="193.501953" xlink:href="#DejaVuSans-101"/>
       <use x="255.025391" xlink:href="#DejaVuSans-101"/>
       <use x="316.548828" xlink:href="#DejaVuSans-110"/>
       <use x="379.927734" xlink:href="#DejaVuSans-32"/>
       <use x="411.714844" xlink:href="#DejaVuSans-67"/>
       <use x="481.539062" xlink:href="#DejaVuSans-104"/>
       <use x="544.917969" xlink:href="#DejaVuSans-111"/>
       <use x="606.099609" xlink:href="#DejaVuSans-119"/>
       <use x="687.886719" xlink:href="#DejaVuSans-100"/>
       <use x="751.363281" xlink:href="#DejaVuSans-104"/>
       <use x="814.742188" xlink:href="#DejaVuSans-117"/>
       <use x="878.121094" xlink:href="#DejaVuSans-114"/>
       <use x="919.234375" xlink:href="#DejaVuSans-121"/>
      </g>
     </g>
    </g>
    <g id="ytick_7">
     <g id="line2d_16">
      <g>
       <use style="fill:#ffffff;stroke:#ffffff;stroke-width:1.875;" x="246.197344" xlink:href="#mb43ee3dafc" y="380.001187"/>
      </g>
     </g>
     <g id="text_17">
      <!-- Chameli Gupta -->
      <g style="fill:#ffffff;" transform="translate(110.674375 386.269898)scale(0.165 -0.165)">
       <use xlink:href="#DejaVuSans-67"/>
       <use x="69.824219" xlink:href="#DejaVuSans-104"/>
       <use x="133.203125" xlink:href="#DejaVuSans-97"/>
       <use x="194.482422" xlink:href="#DejaVuSans-109"/>
       <use x="291.894531" xlink:href="#DejaVuSans-101"/>
       <use x="353.417969" xlink:href="#DejaVuSans-108"/>
       <use x="381.201172" xlink:href="#DejaVuSans-105"/>
       <use x="408.984375" xlink:href="#DejaVuSans-32"/>
       <use x="440.771484" xlink:href="#DejaVuSans-71"/>
       <use x="518.261719" xlink:href="#DejaVuSans-117"/>
       <use x="581.640625" xlink:href="#DejaVuSans-112"/>
       <use x="645.117188" xlink:href="#DejaVuSans-116"/>
       <use x="684.326172" xlink:href="#DejaVuSans-97"/>
      </g>
     </g>
    </g>
    <g id="ytick_8">
     <g id="line2d_17">
      <g>
       <use style="fill:#ffffff;stroke:#ffffff;stroke-width:1.875;" x="246.197344" xlink:href="#mb43ee3dafc" y="429.897187"/>
      </g>
     </g>
     <g id="text_18">
      <!-- Shreya Dalui -->
      <g style="fill:#ffffff;" transform="translate(128.63875 436.165898)scale(0.165 -0.165)">
       <use xlink:href="#DejaVuSans-83"/>
       <use x="63.476562" xlink:href="#DejaVuSans-104"/>
       <use x="126.855469" xlink:href="#DejaVuSans-114"/>
       <use x="165.71875" xlink:href="#DejaVuSans-101"/>
       <use x="227.242188" xlink:href="#DejaVuSans-121"/>
       <use x="286.421875" xlink:href="#DejaVuSans-97"/>
       <use x="347.701172" xlink:href="#DejaVuSans-32"/>
       <use x="379.488281" xlink:href="#DejaVuSans-68"/>
       <use x="456.490234" xlink:href="#DejaVuSans-97"/>
       <use x="517.769531" xlink:href="#DejaVuSans-108"/>
       <use x="545.552734" xlink:href="#DejaVuSans-117"/>
       <use x="608.931641" xlink:href="#DejaVuSans-105"/>
      </g>
     </g>
    </g>
    <g id="ytick_9">
     <g id="line2d_18">
      <g>
       <use style="fill:#ffffff;stroke:#ffffff;stroke-width:1.875;" x="246.197344" xlink:href="#mb43ee3dafc" y="479.793187"/>
      </g>
     </g>
     <g id="text_19">
      <!-- Shilpa Mondal -->
      <defs>
       <path d="M 9.8125 72.90625 
L 24.515625 72.90625 
L 43.109375 23.296875 
L 61.8125 72.90625 
L 76.515625 72.90625 
L 76.515625 0 
L 66.890625 0 
L 66.890625 64.015625 
L 48.09375 14.015625 
L 38.1875 14.015625 
L 19.390625 64.015625 
L 19.390625 0 
L 9.8125 0 
z
" id="DejaVuSans-77"/>
      </defs>
      <g style="fill:#ffffff;" transform="translate(117.808047 486.061898)scale(0.165 -0.165)">
       <use xlink:href="#DejaVuSans-83"/>
       <use x="63.476562" xlink:href="#DejaVuSans-104"/>
       <use x="126.855469" xlink:href="#DejaVuSans-105"/>
       <use x="154.638672" xlink:href="#DejaVuSans-108"/>
       <use x="182.421875" xlink:href="#DejaVuSans-112"/>
       <use x="245.898438" xlink:href="#DejaVuSans-97"/>
       <use x="307.177734" xlink:href="#DejaVuSans-32"/>
       <use x="338.964844" xlink:href="#DejaVuSans-77"/>
       <use x="425.244141" xlink:href="#DejaVuSans-111"/>
       <use x="486.425781" xlink:href="#DejaVuSans-110"/>
       <use x="549.804688" xlink:href="#DejaVuSans-100"/>
       <use x="613.28125" xlink:href="#DejaVuSans-97"/>
       <use x="674.560547" xlink:href="#DejaVuSans-108"/>
      </g>
     </g>
    </g>
    <g id="ytick_10">
     <g id="line2d_19">
      <g>
       <use style="fill:#ffffff;stroke:#ffffff;stroke-width:1.875;" x="246.197344" xlink:href="#mb43ee3dafc" y="529.689188"/>
      </g>
     </g>
     <g id="text_20">
      <!-- Priyanka Pramanick -->
      <defs>
       <path d="M 19.671875 64.796875 
L 19.671875 37.40625 
L 32.078125 37.40625 
Q 38.96875 37.40625 42.71875 40.96875 
Q 46.484375 44.53125 46.484375 51.125 
Q 46.484375 57.671875 42.71875 61.234375 
Q 38.96875 64.796875 32.078125 64.796875 
z
M 9.8125 72.90625 
L 32.078125 72.90625 
Q 44.34375 72.90625 50.609375 67.359375 
Q 56.890625 61.8125 56.890625 51.125 
Q 56.890625 40.328125 50.609375 34.8125 
Q 44.34375 29.296875 32.078125 29.296875 
L 19.671875 29.296875 
L 19.671875 0 
L 9.8125 0 
z
" id="DejaVuSans-80"/>
       <path d="M 48.78125 52.59375 
L 48.78125 44.1875 
Q 44.96875 46.296875 41.140625 47.34375 
Q 37.3125 48.390625 33.40625 48.390625 
Q 24.65625 48.390625 19.8125 42.84375 
Q 14.984375 37.3125 14.984375 27.296875 
Q 14.984375 17.28125 19.8125 11.734375 
Q 24.65625 6.203125 33.40625 6.203125 
Q 37.3125 6.203125 41.140625 7.25 
Q 44.96875 8.296875 48.78125 10.40625 
L 48.78125 2.09375 
Q 45.015625 0.34375 40.984375 -0.53125 
Q 36.96875 -1.421875 32.421875 -1.421875 
Q 20.0625 -1.421875 12.78125 6.34375 
Q 5.515625 14.109375 5.515625 27.296875 
Q 5.515625 40.671875 12.859375 48.328125 
Q 20.21875 56 33.015625 56 
Q 37.15625 56 41.109375 55.140625 
Q 45.0625 54.296875 48.78125 52.59375 
z
" id="DejaVuSans-99"/>
      </defs>
      <g style="fill:#ffffff;" transform="translate(71.308984 535.957898)scale(0.165 -0.165)">
       <use xlink:href="#DejaVuSans-80"/>
       <use x="58.552734" xlink:href="#DejaVuSans-114"/>
       <use x="99.666016" xlink:href="#DejaVuSans-105"/>
       <use x="127.449219" xlink:href="#DejaVuSans-121"/>
       <use x="186.628906" xlink:href="#DejaVuSans-97"/>
       <use x="247.908203" xlink:href="#DejaVuSans-110"/>
       <use x="311.287109" xlink:href="#DejaVuSans-107"/>
       <use x="367.447266" xlink:href="#DejaVuSans-97"/>
       <use x="428.726562" xlink:href="#DejaVuSans-32"/>
       <use x="460.513672" xlink:href="#DejaVuSans-80"/>
       <use x="519.066406" xlink:href="#DejaVuSans-114"/>
       <use x="560.179688" xlink:href="#DejaVuSans-97"/>
       <use x="621.458984" xlink:href="#DejaVuSans-109"/>
       <use x="718.871094" xlink:href="#DejaVuSans-97"/>
       <use x="780.150391" xlink:href="#DejaVuSans-110"/>
       <use x="843.529297" xlink:href="#DejaVuSans-105"/>
       <use x="871.3125" xlink:href="#DejaVuSans-99"/>
       <use x="926.292969" xlink:href="#DejaVuSans-107"/>
      </g>
     </g>
    </g>
    <g id="text_21">
     <!-- Facebook Profiles -->
     <defs>
      <path d="M 9.8125 72.90625 
L 51.703125 72.90625 
L 51.703125 64.59375 
L 19.671875 64.59375 
L 19.671875 43.109375 
L 48.578125 43.109375 
L 48.578125 34.8125 
L 19.671875 34.8125 
L 19.671875 0 
L 9.8125 0 
z
" id="DejaVuSans-70"/>
     </defs>
     <g style="fill:#ffffff;" transform="translate(49.677188 382.981875)rotate(-90)scale(0.18 -0.18)">
      <use xlink:href="#DejaVuSans-70"/>
      <use x="48.394531" xlink:href="#DejaVuSans-97"/>
      <use x="109.673828" xlink:href="#DejaVuSans-99"/>
      <use x="164.654297" xlink:href="#DejaVuSans-101"/>
      <use x="226.177734" xlink:href="#DejaVuSans-98"/>
      <use x="289.654297" xlink:href="#DejaVuSans-111"/>
      <use x="350.835938" xlink:href="#DejaVuSans-111"/>
      <use x="412.017578" xlink:href="#DejaVuSans-107"/>
      <use x="469.927734" xlink:href="#DejaVuSans-32"/>
      <use x="501.714844" xlink:href="#DejaVuSans-80"/>
      <use x="560.267578" xlink:href="#DejaVuSans-114"/>
      <use x="599.130859" xlink:href="#DejaVuSans-111"/>
      <use x="660.3125" xlink:href="#DejaVuSans-102"/>
      <use x="695.517578" xlink:href="#DejaVuSans-105"/>
      <use x="723.300781" xlink:href="#DejaVuSans-108"/>
      <use x="751.083984" xlink:href="#DejaVuSans-101"/>
      <use x="812.607422" xlink:href="#DejaVuSans-115"/>
     </g>
    </g>
   </g>
   <g id="patch_3">
    <path clip-path="url(#p3f99b2d0a2)" d="M 246.197344 60.666787 
L 1096.483058 60.666787 
L 1096.483058 100.583587 
L 246.197344 100.583587 
z
" style="fill:#96cac1;stroke:#ffffff;stroke-linejoin:miter;stroke-width:1.5;"/>
   </g>
   <g id="patch_4">
    <path clip-path="url(#p3f99b2d0a2)" d="M 246.197344 110.562787 
L 421.162033 110.562787 
L 421.162033 150.479587 
L 246.197344 150.479587 
z
" style="fill:#f5f6bc;stroke:#ffffff;stroke-linejoin:miter;stroke-width:1.5;"/>
   </g>
   <g id="patch_5">
    <path clip-path="url(#p3f99b2d0a2)" d="M 246.197344 160.458787 
L 343.281409 160.458787 
L 343.281409 200.375587 
L 246.197344 200.375587 
z
" style="fill:#c2bfd5;stroke:#ffffff;stroke-linejoin:miter;stroke-width:1.5;"/>
   </g>
   <g id="patch_6">
    <path clip-path="url(#p3f99b2d0a2)" d="M 246.197344 210.354787 
L 324.077968 210.354787 
L 324.077968 250.271587 
L 246.197344 250.271587 
z
" style="fill:#e98e85;stroke:#ffffff;stroke-linejoin:miter;stroke-width:1.5;"/>
   </g>
   <g id="patch_7">
    <path clip-path="url(#p3f99b2d0a2)" d="M 246.197344 260.250787 
L 318.743678 260.250787 
L 318.743678 300.167587 
L 246.197344 300.167587 
z
" style="fill:#8bafc8;stroke:#ffffff;stroke-linejoin:miter;stroke-width:1.5;"/>
   </g>
   <g id="patch_8">
    <path clip-path="url(#p3f99b2d0a2)" d="M 246.197344 310.146787 
L 300.607095 310.146787 
L 300.607095 350.063587 
L 246.197344 350.063587 
z
" style="fill:#eab375;stroke:#ffffff;stroke-linejoin:miter;stroke-width:1.5;"/>
   </g>
   <g id="patch_9">
    <path clip-path="url(#p3f99b2d0a2)" d="M 246.197344 360.042787 
L 292.072232 360.042787 
L 292.072232 399.959587 
L 246.197344 399.959587 
z
" style="fill:#afcf78;stroke:#ffffff;stroke-linejoin:miter;stroke-width:1.5;"/>
   </g>
   <g id="patch_10">
    <path clip-path="url(#p3f99b2d0a2)" d="M 246.197344 409.938787 
L 289.938516 409.938787 
L 289.938516 449.855587 
L 246.197344 449.855587 
z
" style="fill:#b589b6;stroke:#ffffff;stroke-linejoin:miter;stroke-width:1.5;"/>
   </g>
   <g id="patch_11">
    <path clip-path="url(#p3f99b2d0a2)" d="M 246.197344 459.834787 
L 285.671085 459.834787 
L 285.671085 499.751587 
L 246.197344 499.751587 
z
" style="fill:#cfe6c9;stroke:#ffffff;stroke-linejoin:miter;stroke-width:1.5;"/>
   </g>
   <g id="patch_12">
    <path clip-path="url(#p3f99b2d0a2)" d="M 246.197344 509.730787 
L 284.604227 509.730787 
L 284.604227 549.647587 
L 246.197344 549.647587 
z
" style="fill:#ede081;stroke:#ffffff;stroke-linejoin:miter;stroke-width:1.5;"/>
   </g>
   <g id="line2d_20">
    <path clip-path="url(#p3f99b2d0a2)" d="M 0 0 
" style="fill:none;stroke:#424242;stroke-linecap:round;stroke-width:4.05;"/>
   </g>
   <g id="line2d_21">
    <path clip-path="url(#p3f99b2d0a2)" d="M 0 0 
" style="fill:none;stroke:#424242;stroke-linecap:round;stroke-width:4.05;"/>
   </g>
   <g id="line2d_22">
    <path clip-path="url(#p3f99b2d0a2)" d="M 0 0 
" style="fill:none;stroke:#424242;stroke-linecap:round;stroke-width:4.05;"/>
   </g>
   <g id="line2d_23">
    <path clip-path="url(#p3f99b2d0a2)" d="M 0 0 
" style="fill:none;stroke:#424242;stroke-linecap:round;stroke-width:4.05;"/>
   </g>
   <g id="line2d_24">
    <path clip-path="url(#p3f99b2d0a2)" d="M 0 0 
" style="fill:none;stroke:#424242;stroke-linecap:round;stroke-width:4.05;"/>
   </g>
   <g id="line2d_25">
    <path clip-path="url(#p3f99b2d0a2)" d="M 0 0 
" style="fill:none;stroke:#424242;stroke-linecap:round;stroke-width:4.05;"/>
   </g>
   <g id="line2d_26">
    <path clip-path="url(#p3f99b2d0a2)" d="M 0 0 
" style="fill:none;stroke:#424242;stroke-linecap:round;stroke-width:4.05;"/>
   </g>
   <g id="line2d_27">
    <path clip-path="url(#p3f99b2d0a2)" d="M 0 0 
" style="fill:none;stroke:#424242;stroke-linecap:round;stroke-width:4.05;"/>
   </g>
   <g id="line2d_28">
    <path clip-path="url(#p3f99b2d0a2)" d="M 0 0 
" style="fill:none;stroke:#424242;stroke-linecap:round;stroke-width:4.05;"/>
   </g>
   <g id="line2d_29">
    <path clip-path="url(#p3f99b2d0a2)" d="M 0 0 
" style="fill:none;stroke:#424242;stroke-linecap:round;stroke-width:4.05;"/>
   </g>
   <g id="patch_13">
    <path d="M 246.197344 554.637187 
L 246.197344 55.677187 
" style="fill:none;stroke:#ffffff;stroke-linecap:square;stroke-linejoin:miter;stroke-width:1.875;"/>
   </g>
   <g id="patch_14">
    <path d="M 1138.997344 554.637187 
L 1138.997344 55.677187 
" style="fill:none;stroke:#ffffff;stroke-linecap:square;stroke-linejoin:miter;stroke-width:1.875;"/>
   </g>
   <g id="patch_15">
    <path d="M 246.197344 554.637187 
L 1138.997344 554.637187 
" style="fill:none;stroke:#ffffff;stroke-linecap:square;stroke-linejoin:miter;stroke-width:1.875;"/>
   </g>
   <g id="patch_16">
    <path d="M 246.197344 55.677187 
L 1138.997344 55.677187 
" style="fill:none;stroke:#ffffff;stroke-linecap:square;stroke-linejoin:miter;stroke-width:1.875;"/>
   </g>
   <g id="text_22">
    <!-- Top 10 Facebook Profiles, with whom Anjan Roy mostly interacted in Facebook Comments -->
    <defs>
     <path d="M -0.296875 72.90625 
L 61.375 72.90625 
L 61.375 64.59375 
L 35.5 64.59375 
L 35.5 0 
L 25.59375 0 
L 25.59375 64.59375 
L -0.296875 64.59375 
z
" id="DejaVuSans-84"/>
     <path d="M 11.71875 12.40625 
L 22.015625 12.40625 
L 22.015625 4 
L 14.015625 -11.625 
L 7.71875 -11.625 
L 11.71875 4 
z
" id="DejaVuSans-44"/>
     <path d="M 34.1875 63.1875 
L 20.796875 26.90625 
L 47.609375 26.90625 
z
M 28.609375 72.90625 
L 39.796875 72.90625 
L 67.578125 0 
L 57.328125 0 
L 50.6875 18.703125 
L 17.828125 18.703125 
L 11.1875 0 
L 0.78125 0 
z
" id="DejaVuSans-65"/>
     <path d="M 9.421875 54.6875 
L 18.40625 54.6875 
L 18.40625 -0.984375 
Q 18.40625 -11.421875 14.421875 -16.109375 
Q 10.453125 -20.796875 1.609375 -20.796875 
L -1.8125 -20.796875 
L -1.8125 -13.1875 
L 0.59375 -13.1875 
Q 5.71875 -13.1875 7.5625 -10.8125 
Q 9.421875 -8.453125 9.421875 -0.984375 
z
M 9.421875 75.984375 
L 18.40625 75.984375 
L 18.40625 64.59375 
L 9.421875 64.59375 
z
" id="DejaVuSans-106"/>
     <path d="M 44.390625 34.1875 
Q 47.5625 33.109375 50.5625 29.59375 
Q 53.5625 26.078125 56.59375 19.921875 
L 66.609375 0 
L 56 0 
L 46.6875 18.703125 
Q 43.0625 26.03125 39.671875 28.421875 
Q 36.28125 30.8125 30.421875 30.8125 
L 19.671875 30.8125 
L 19.671875 0 
L 9.8125 0 
L 9.8125 72.90625 
L 32.078125 72.90625 
Q 44.578125 72.90625 50.734375 67.671875 
Q 56.890625 62.453125 56.890625 51.90625 
Q 56.890625 45.015625 53.6875 40.46875 
Q 50.484375 35.9375 44.390625 34.1875 
z
M 19.671875 64.796875 
L 19.671875 38.921875 
L 32.078125 38.921875 
Q 39.203125 38.921875 42.84375 42.21875 
Q 46.484375 45.515625 46.484375 51.90625 
Q 46.484375 58.296875 42.84375 61.546875 
Q 39.203125 64.796875 32.078125 64.796875 
z
" id="DejaVuSans-82"/>
    </defs>
    <g style="fill:#ffffff;" transform="translate(289.303125 49.677187)scale(0.18 -0.18)">
     <use xlink:href="#DejaVuSans-84"/>
     <use x="44.083984" xlink:href="#DejaVuSans-111"/>
     <use x="105.265625" xlink:href="#DejaVuSans-112"/>
     <use x="168.742188" xlink:href="#DejaVuSans-32"/>
     <use x="200.529297" xlink:href="#DejaVuSans-49"/>
     <use x="264.152344" xlink:href="#DejaVuSans-48"/>
     <use x="327.775391" xlink:href="#DejaVuSans-32"/>
     <use x="359.5625" xlink:href="#DejaVuSans-70"/>
     <use x="407.957031" xlink:href="#DejaVuSans-97"/>
     <use x="469.236328" xlink:href="#DejaVuSans-99"/>
     <use x="524.216797" xlink:href="#DejaVuSans-101"/>
     <use x="585.740234" xlink:href="#DejaVuSans-98"/>
     <use x="649.216797" xlink:href="#DejaVuSans-111"/>
     <use x="710.398438" xlink:href="#DejaVuSans-111"/>
     <use x="771.580078" xlink:href="#DejaVuSans-107"/>
     <use x="829.490234" xlink:href="#DejaVuSans-32"/>
     <use x="861.277344" xlink:href="#DejaVuSans-80"/>
     <use x="919.830078" xlink:href="#DejaVuSans-114"/>
     <use x="958.693359" xlink:href="#DejaVuSans-111"/>
     <use x="1019.875" xlink:href="#DejaVuSans-102"/>
     <use x="1055.080078" xlink:href="#DejaVuSans-105"/>
     <use x="1082.863281" xlink:href="#DejaVuSans-108"/>
     <use x="1110.646484" xlink:href="#DejaVuSans-101"/>
     <use x="1172.169922" xlink:href="#DejaVuSans-115"/>
     <use x="1224.269531" xlink:href="#DejaVuSans-44"/>
     <use x="1256.056641" xlink:href="#DejaVuSans-32"/>
     <use x="1287.84375" xlink:href="#DejaVuSans-119"/>
     <use x="1369.630859" xlink:href="#DejaVuSans-105"/>
     <use x="1397.414062" xlink:href="#DejaVuSans-116"/>
     <use x="1436.623047" xlink:href="#DejaVuSans-104"/>
     <use x="1500.001953" xlink:href="#DejaVuSans-32"/>
     <use x="1531.789062" xlink:href="#DejaVuSans-119"/>
     <use x="1613.576172" xlink:href="#DejaVuSans-104"/>
     <use x="1676.955078" xlink:href="#DejaVuSans-111"/>
     <use x="1738.136719" xlink:href="#DejaVuSans-109"/>
     <use x="1835.548828" xlink:href="#DejaVuSans-32"/>
     <use x="1867.335938" xlink:href="#DejaVuSans-65"/>
     <use x="1935.744141" xlink:href="#DejaVuSans-110"/>
     <use x="1999.123047" xlink:href="#DejaVuSans-106"/>
     <use x="2026.90625" xlink:href="#DejaVuSans-97"/>
     <use x="2088.185547" xlink:href="#DejaVuSans-110"/>
     <use x="2151.564453" xlink:href="#DejaVuSans-32"/>
     <use x="2183.351562" xlink:href="#DejaVuSans-82"/>
     <use x="2248.333984" xlink:href="#DejaVuSans-111"/>
     <use x="2309.515625" xlink:href="#DejaVuSans-121"/>
     <use x="2368.695312" xlink:href="#DejaVuSans-32"/>
     <use x="2400.482422" xlink:href="#DejaVuSans-109"/>
     <use x="2497.894531" xlink:href="#DejaVuSans-111"/>
     <use x="2559.076172" xlink:href="#DejaVuSans-115"/>
     <use x="2611.175781" xlink:href="#DejaVuSans-116"/>
     <use x="2650.384766" xlink:href="#DejaVuSans-108"/>
     <use x="2678.167969" xlink:href="#DejaVuSans-121"/>
     <use x="2737.347656" xlink:href="#DejaVuSans-32"/>
     <use x="2769.134766" xlink:href="#DejaVuSans-105"/>
     <use x="2796.917969" xlink:href="#DejaVuSans-110"/>
     <use x="2860.296875" xlink:href="#DejaVuSans-116"/>
     <use x="2899.505859" xlink:href="#DejaVuSans-101"/>
     <use x="2961.029297" xlink:href="#DejaVuSans-114"/>
     <use x="3002.142578" xlink:href="#DejaVuSans-97"/>
     <use x="3063.421875" xlink:href="#DejaVuSans-99"/>
     <use x="3118.402344" xlink:href="#DejaVuSans-116"/>
     <use x="3157.611328" xlink:href="#DejaVuSans-101"/>
     <use x="3219.134766" xlink:href="#DejaVuSans-100"/>
     <use x="3282.611328" xlink:href="#DejaVuSans-32"/>
     <use x="3314.398438" xlink:href="#DejaVuSans-105"/>
     <use x="3342.181641" xlink:href="#DejaVuSans-110"/>
     <use x="3405.560547" xlink:href="#DejaVuSans-32"/>
     <use x="3437.347656" xlink:href="#DejaVuSans-70"/>
     <use x="3485.742188" xlink:href="#DejaVuSans-97"/>
     <use x="3547.021484" xlink:href="#DejaVuSans-99"/>
     <use x="3602.001953" xlink:href="#DejaVuSans-101"/>
     <use x="3663.525391" xlink:href="#DejaVuSans-98"/>
     <use x="3727.001953" xlink:href="#DejaVuSans-111"/>
     <use x="3788.183594" xlink:href="#DejaVuSans-111"/>
     <use x="3849.365234" xlink:href="#DejaVuSans-107"/>
     <use x="3907.275391" xlink:href="#DejaVuSans-32"/>
     <use x="3939.0625" xlink:href="#DejaVuSans-67"/>
     <use x="4008.886719" xlink:href="#DejaVuSans-111"/>
     <use x="4070.068359" xlink:href="#DejaVuSans-109"/>
     <use x="4167.480469" xlink:href="#DejaVuSans-109"/>
     <use x="4264.892578" xlink:href="#DejaVuSans-101"/>
     <use x="4326.416016" xlink:href="#DejaVuSans-110"/>
     <use x="4389.794922" xlink:href="#DejaVuSans-116"/>
     <use x="4429.003906" xlink:href="#DejaVuSans-115"/>
    </g>
   </g>
  </g>
 </g>
 <defs>
  <clipPath id="p3f99b2d0a2">
   <rect height="498.96" width="892.8" x="246.197344" y="55.677187"/>
  </clipPath>
 </defs>
</svg>
